<svg aria-hidden="true" style="position: absolute; width: 0; height: 0; overflow: hidden;" version="1.1" xmlns="http://www.w3.org/2000/svg" xmlns:xlink="http://www.w3.org/1999/xlink">
<defs>
<symbol id="instagram" viewBox="0 0 32 32">
<path  d="M31.968 9.408c-0.074-1.701-0.349-2.869-0.742-3.882-0.424-1.111-1.054-2.059-1.85-2.837l-0.001-0.001c-0.78-0.792-1.724-1.419-2.778-1.827l-0.054-0.018c-1.019-0.394-2.181-0.667-3.882-0.742-1.712-0.082-2.256-0.101-6.602-0.101-4.344 0-4.888 0.019-6.595 0.094-1.699 0.074-2.869 0.349-3.88 0.742-1.112 0.424-2.060 1.054-2.839 1.85l-0.001 0.001c-0.791 0.78-1.418 1.724-1.825 2.778l-0.018 0.054c-0.395 1.019-0.669 2.181-0.744 3.882-0.082 1.712-0.101 2.256-0.101 6.602 0 4.344 0.019 4.888 0.094 6.595 0.075 1.701 0.35 2.869 0.744 3.882 0.426 1.11 1.055 2.057 1.849 2.837l0.001 0.001c0.8 0.813 1.77 1.443 2.832 1.843 1.019 0.395 2.182 0.67 3.882 0.744 1.707 0.075 2.251 0.094 6.595 0.094 4.346 0 4.89-0.019 6.595-0.094 1.701-0.074 2.869-0.349 3.882-0.742 2.157-0.85 3.833-2.526 4.664-4.628l0.019-0.055c0.394-1.019 0.669-2.182 0.744-3.882 0.075-1.707 0.093-2.251 0.093-6.595s-0.006-4.888-0.080-6.595zM29.088 22.474c-0.070 1.563-0.333 2.406-0.55 2.97-0.552 1.399-1.64 2.486-3.004 3.024l-0.036 0.012c-0.56 0.219-1.411 0.482-2.968 0.55-1.688 0.075-2.194 0.094-6.464 0.094-4.269 0-4.782-0.019-6.464-0.094-1.563-0.069-2.406-0.331-2.97-0.55-0.721-0.269-1.334-0.676-1.836-1.192l-0.001-0.001c-0.517-0.503-0.924-1.117-1.184-1.803l-0.011-0.034c-0.218-0.563-0.48-1.413-0.549-2.97-0.075-1.688-0.094-2.195-0.094-6.464 0-4.27 0.019-4.784 0.094-6.464 0.069-1.563 0.331-2.406 0.549-2.97 0.269-0.722 0.678-1.337 1.198-1.837l0.002-0.002c0.504-0.517 1.119-0.923 1.806-1.182l0.034-0.011c0.56-0.219 1.411-0.48 2.968-0.55 1.688-0.074 2.195-0.093 6.464-0.093 4.275 0 4.782 0.019 6.464 0.093 1.563 0.069 2.406 0.331 2.97 0.55 0.693 0.256 1.325 0.662 1.837 1.194 0.531 0.52 0.938 1.144 1.195 1.84 0.218 0.56 0.48 1.411 0.549 2.968 0.075 1.688 0.094 2.194 0.094 6.464 0 4.269-0.019 4.768-0.094 6.458z"></path>
<path  d="M16.059 7.782c-4.539 0.002-8.218 3.682-8.219 8.221v0c0.091 4.471 3.737 8.060 8.221 8.060s8.13-3.589 8.221-8.052l0-0.009c-0.001-4.54-3.681-8.22-8.221-8.221h-0zM16.059 21.334c-2.945-0-5.332-2.388-5.332-5.333s2.388-5.333 5.333-5.333c0 0 0.001 0 0.001 0h-0c2.946 0 5.334 2.388 5.334 5.334s-2.388 5.334-5.334 5.334v0zM26.525 7.458c0 1.060-0.86 1.92-1.92 1.92s-1.92-0.86-1.92-1.92v0c0-1.060 0.86-1.92 1.92-1.92s1.92 0.86 1.92 1.92v0z"></path>
</symbol>
<symbol id="twitter" viewBox="0 0 32 32">
<path  d="M32 6.078c-1.1 0.493-2.376 0.857-3.713 1.028l-0.068 0.007c1.36-0.817 2.382-2.078 2.873-3.579l0.013-0.046c-1.197 0.722-2.591 1.273-4.076 1.573l-0.084 0.014c-1.2-1.279-2.9-2.076-4.787-2.076-3.622 0-6.558 2.936-6.558 6.558 0 0.001 0 0.003 0 0.004v-0c0 0.52 0.043 1.021 0.152 1.496-5.454-0.266-10.28-2.88-13.522-6.861-0.564 0.949-0.899 2.092-0.902 3.313v0.001c0 2.272 1.171 4.286 2.914 5.451-1.091-0.030-2.107-0.325-2.994-0.823l0.033 0.017v0.072c0.003 3.165 2.236 5.807 5.213 6.44l0.043 0.008c-0.499 0.136-1.071 0.215-1.662 0.215-0.020 0-0.041-0-0.061-0l0.003 0c-0.419 0-0.843-0.024-1.242-0.112 0.85 2.598 3.261 4.509 6.13 4.57-2.215 1.746-5.045 2.8-8.122 2.8-0.004 0-0.008 0-0.013 0h0.001c-0.018 0-0.040 0-0.062 0-0.531 0-1.055-0.034-1.569-0.099l0.061 0.006c2.826 1.846 6.287 2.944 10.004 2.944 0.021 0 0.042-0 0.063-0h-0.003c12.072 0 18.672-10 18.672-18.669 0-0.288-0.010-0.57-0.024-0.848 1.299-0.936 2.39-2.064 3.258-3.355l0.030-0.047z"></path>
</symbol>
<symbol id="facebook" viewBox="0 0 32 32">
<path  d="M21.328 5.312h2.923v-5.088c-1.232-0.143-2.66-0.224-4.108-0.224-0.052 0-0.104 0-0.156 0l0.008-0c-4.213 0-7.099 2.65-7.099 7.52v4.48h-4.646v5.688h4.646v14.312h5.699v-14.31h4.459l0.707-5.688h-5.168v-3.922c0-1.643 0.443-2.768 2.734-2.768z"></path>
</symbol>
<symbol id="linkedin" viewBox="0 0 32 32">
<path  d="M31.992 32h0.008v-11.738c0-5.741-1.237-10.163-7.947-10.163-3.227 0-5.392 1.77-6.277 3.45h-0.093v-2.914h-6.365v21.363h6.627v-10.578c0-2.786 0.528-5.48 3.978-5.48 3.398 0 3.448 3.179 3.448 5.658v10.402h6.621zM0.528 10.635h6.635v21.365h-6.635v-21.365zM3.843 0c-2.123 0-3.843 1.721-3.843 3.843v0c0 2.12 1.722 3.878 3.843 3.878 2.12 0 3.842-1.757 3.842-3.878s-1.72-3.841-3.841-3.843h-0z"></path>
</symbol>
<symbol id="antenna" viewBox="0 0 32 32">
<path fill="#212121" style="fill: var(--color2, #212121)" d="M30.778 22.101l-8.444-8.506 0.937-4.617c0.225 0.090 0.485 0.144 0.758 0.146h0.033c0 0 0 0 0 0 1.193 0 2.16-0.967 2.16-2.16s-0.967-2.16-2.16-2.16c-1.193 0-2.16 0.967-2.16 2.16 0 0.266 0.048 0.52 0.136 0.755l-0.005-0.015-0.005-0.015-4.961 0.606-8.092-8.134c-0.096-0.098-0.229-0.159-0.376-0.16h-0c-0.146 0.001-0.277 0.060-0.373 0.155l0-0-1.512 1.504c-0.096 0.097-0.155 0.23-0.155 0.377s0.059 0.28 0.155 0.377l-0-0 0.814 0.825c-1.143 2.062-1.816 4.523-1.816 7.14 0 4.107 1.656 7.825 4.337 10.527l-0.001-0.001c0.041 0.040 0.090 0.072 0.143 0.096l0.003 0.001c-0.033 0.164-0.051 0.353-0.052 0.546v6.189h-6.401c-1.472 0.001-2.666 1.194-2.667 2.666v1.067c0 0.295 0.239 0.534 0.534 0.534h24.538c0.295-0.001 0.533-0.239 0.533-0.534 0 0 0 0 0 0v0-1.067c-0.002-1.472-1.195-2.664-2.666-2.666h-6.401v-2.742c0.919 0.203 1.975 0.32 3.057 0.32 2.608 0 5.058-0.675 7.185-1.86l-0.075 0.038-0.077 0.039 0.818 0.823c0.096 0.098 0.229 0.159 0.376 0.16h0c0.146-0.001 0.277-0.060 0.373-0.155l-0 0 1.512-1.504c0.096-0.097 0.155-0.23 0.155-0.377s-0.059-0.28-0.155-0.377l0 0zM23.284 6.234c0.193-0.193 0.46-0.312 0.754-0.312 0.589 0 1.067 0.478 1.067 1.067s-0.478 1.067-1.067 1.067c-0.001 0-0.001 0-0.002 0h-0.004c-0.587-0.003-1.062-0.479-1.062-1.066 0-0.296 0.12-0.563 0.314-0.756l0-0h-0.002zM22.027 9.738l-0.598 2.946-1.175-1.183 1.774-1.763zM21.422 8.836l-1.92 1.909-1.486-1.493 3.407-0.416zM24.008 28.804c0.884 0 1.6 0.716 1.6 1.6v0 0.534h-23.47v-0.534c0-0.884 0.716-1.6 1.6-1.6h20.27zM16.541 26.67v1.067h-5.335v-1.067h5.335zM11.206 25.604v-4.054c0-1.294 1.196-2.346 2.667-2.346s2.667 1.053 2.667 2.346v4.054h-5.335zM17.607 23.908v-2.357c0-1.882-1.675-3.413-3.734-3.413h-0.058c-1.353 0-2.54 0.707-3.213 1.771l-0.009 0.016c-2.36-2.475-3.813-5.833-3.813-9.531 0-0.007 0-0.014 0-0.022v0.001c0-2.314 0.567-4.497 1.569-6.415l-0.036 0.077 18.605 18.712c-1.823 0.947-3.98 1.502-6.267 1.502-1.079 0-2.128-0.124-3.136-0.357l0.093 0.018zM28.897 23.224l-21.060-21.184 0.754-0.752 7.936 7.981c0.004 0 0.006 0.007 0.010 0.010l13.116 13.193-0.757 0.752z"></path>
<path fill="#2196f3" style="fill: var(--color3, #2196f3)" d="M13.878 20.27h-0.007c-0 0-0.001 0-0.002 0-0.884 0-1.6 0.716-1.6 1.6s0.716 1.599 1.599 1.6h0.007c0 0 0.001 0 0.001 0 0.884 0 1.6-0.716 1.6-1.6s-0.716-1.6-1.599-1.6h-0zM14.251 22.248c-0.097 0.096-0.23 0.156-0.377 0.156-0.295 0-0.534-0.239-0.534-0.534s0.239-0.534 0.533-0.534h0c0.294 0.001 0.531 0.239 0.531 0.533 0 0.148-0.060 0.281-0.157 0.378l-0 0h0.005z"></path>
</symbol>
<symbol id="astronaut" viewBox="0 0 32 32">
<path fill="#2196f3" style="fill: var(--color3, #2196f3)" d="M31.979 4.525c-0.064-0.19-0.226-0.33-0.424-0.362l-0.003-0h-0.003l-1.911-0.278-0.855-1.731c-0.179-0.365-0.777-0.365-0.956 0l-0.855 1.731-1.911 0.278c-0.26 0.039-0.457 0.261-0.457 0.528 0 0.149 0.061 0.285 0.16 0.382l0 0 1.383 1.348-0.326 1.903c-0.005 0.028-0.008 0.060-0.008 0.092 0 0.294 0.238 0.532 0.532 0.532 0.092 0 0.178-0.023 0.253-0.064l-0.003 0.001 1.709-0.899 1.709 0.899c0.072 0.038 0.157 0.060 0.247 0.060 0.295 0 0.534-0.239 0.534-0.534 0-0.032-0.003-0.064-0.008-0.095l0 0.003v0.003l-0.326-1.903 1.383-1.348c0.099-0.097 0.161-0.233 0.161-0.383 0-0.060-0.010-0.118-0.028-0.171l0.001 0.004 0.001 0.004zM29.515 5.852c-0.099 0.096-0.161 0.231-0.161 0.38 0 0.032 0.003 0.064 0.008 0.095l-0-0.003 0.191 1.114-1-0.526c-0.072-0.040-0.158-0.063-0.25-0.063s-0.179 0.024-0.254 0.066l0.003-0.001 0.003-0.001-1 0.526 0.191-1.114c0.005-0.028 0.008-0.060 0.008-0.092 0-0.149-0.061-0.283-0.16-0.38l-0-0-0.811-0.79 1.119-0.162c0.178-0.026 0.325-0.137 0.401-0.289l0.001-0.003 0.5-1.013 0.5 1.013c0.078 0.155 0.225 0.266 0.399 0.292l0.003 0 1.119 0.162-0.809 0.79zM26.138 20.525h-1.067v1.067h1.067v-1.067zM26.138 22.659h-1.067v1.066h1.067v-1.066zM27.204 21.592h-1.067v1.067h1.067v-1.067zM25.071 21.592h-1.067v1.067h1.067v-1.067zM22.403 26.393h-1.067v1.067h1.067v-1.067zM22.403 28.527h-1.067v1.067h1.067v-1.067zM23.471 27.46h-1.067v1.067h1.067v-1.067zM21.337 27.46h-1.067v1.067h1.067v-1.067zM16.002 24.26h-1.066v1.067h1.066v-1.067zM16.002 26.393h-1.066v1.067h1.066v-1.067zM17.070 25.326h-1.067v1.067h1.067v-1.067zM14.936 25.326h-1.067v1.067h1.067v-1.067zM5.868 6.123h-1.066v1.066h1.066v-1.066zM5.868 8.257h-1.066v1.066h1.066v-1.066zM6.934 7.19h-1.067v1.067h1.066v-1.067zM4.801 7.19h-1.067v1.067h1.067v-1.067z"></path>
<path fill="#212121" style="fill: var(--color2, #212121)" d="M24.719 14.162c-0.278-0.374-0.693-0.633-1.17-0.702l-0.010-0.001-0.009-0.001c-0.077-0.012-0.166-0.019-0.257-0.019-0.412 0-0.791 0.141-1.091 0.377l0.004-0.003 0.004-0.003-1.253 0.96-1.898 1.417-1.358-0.541c2.421-1.086 4.114-3.509 4.114-6.321 0-3.824-3.122-6.935-6.962-6.935s-6.962 3.11-6.962 6.935c0 1.386 0.415 2.674 1.12 3.76l-2.768-0.024c-0.009 0-0.016 0.005-0.023 0.005-0.058 0.003-0.112 0.015-0.162 0.034l0.003-0.001 0.004-0.001c-0.013 0.005-0.026 0.007-0.038 0.013-0.006 0.003-0.013 0.003-0.019 0.006l-3.235 1.597-1.893 0.91c-0.025 0.012-0.047 0.024-0.067 0.037l0.002-0.001 0.001-0.001c-0.482 0.324-0.795 0.867-0.795 1.484 0 0.301 0.074 0.584 0.206 0.832l-0.005-0.010-0.005-0.010c0.22 0.424 0.592 0.742 1.043 0.885l0.013 0.003c0.161 0.053 0.346 0.084 0.539 0.084 0.311 0 0.604-0.080 0.859-0.221l-0.009 0.005-0.009 0.005 1.388-0.738 2.264-1.169 1.357-0.008-6.783 6.75c-0.303 0.298-0.491 0.713-0.491 1.172 0 0.001 0 0.001 0 0.002v-0 0.005c0.002 0.919 0.748 1.664 1.667 1.664h0.002c0.001 0 0.002 0 0.003 0 0.459 0 0.875-0.185 1.177-0.485l-0 0 1.314-1.309 1.741-1.3 0.901 0.897-3.102 3.088c-0.303 0.298-0.491 0.713-0.491 1.172 0 0.001 0 0.001 0 0.002v-0 0.004c0 0.001 0 0.001 0 0.002 0 0.918 0.744 1.662 1.662 1.662 0.001 0 0.003 0 0.004 0h0.003c0.001 0 0.002 0 0.003 0 0.459 0 0.875-0.185 1.177-0.485l-0 0 4.489-4.473c0.007-0.006 0.016-0.009 0.022-0.016l5.167-5.659 3.472 0.494c0.023 0.004 0.049 0.006 0.076 0.006 0.067 0 0.131-0.014 0.189-0.039l-0.003 0.001c0.017-0.006 0.032-0.015 0.049-0.023 0.019-0.010 0.039-0.015 0.058-0.027l3.213-2.133c0.012-0.008 0.018-0.021 0.029-0.030 0.013-0.010 0.029-0.014 0.041-0.026l1.271-1.191c0.348-0.326 0.564-0.787 0.564-1.3 0-0.4-0.132-0.769-0.355-1.066l0.003 0.005zM2.13 17.773c-0.098 0.055-0.215 0.087-0.339 0.087-0.080 0-0.158-0.013-0.23-0.038l0.005 0.002 0.005 0.001c-0.294-0.094-0.502-0.365-0.502-0.684 0-0.234 0.112-0.442 0.285-0.573l0.002-0.001 0.002-0.001 1.314-0.632 0.449 1.313-0.992 0.527zM5.628 15.944l-1.548 0.8-0.255-0.746-0.184-0.537 2.027-1.001-0.040 1.484zM20.73 9.323c0 0.918-0.219 1.785-0.599 2.56l-4.182-1.899c-0.044-0.573-0.34-1.068-0.776-1.38l-0.006-0.004-0.006-0.004 1.464-4.862c2.377 0.757 4.105 2.975 4.105 5.589zM8.939 9.323c0-3.236 2.644-5.868 5.895-5.868 0.253 0 0.5 0.022 0.745 0.053l-1.432 4.754c-0.019 0-0.037-0.006-0.057-0.006h-0.001c0 0 0 0 0 0-1.032 0-1.869 0.835-1.872 1.867v0c0.003 1.032 0.84 1.867 1.872 1.867h0.001c0.695 0 1.295-0.383 1.618-0.944l3.864 1.755c-1.085 1.457-2.802 2.39-4.738 2.39h-0c-3.251 0-5.895-2.632-5.895-5.868zM14.897 10.124c0 0.441-0.362 0.8-0.806 0.8h-0.001c0 0 0 0 0 0-0.443 0-0.802-0.358-0.804-0.8v-0c0-0.441 0.361-0.8 0.806-0.8s0.806 0.359 0.806 0.8zM2.464 25.15c-0.11 0.109-0.261 0.177-0.428 0.177s-0.318-0.067-0.427-0.176l0 0c-0.109-0.107-0.177-0.257-0.177-0.422s0.068-0.315 0.177-0.422l0-0 0.962-0.959 0.852 0.848-0.959 0.954zM5.679 28.884c-0.11 0.109-0.261 0.177-0.428 0.177s-0.318-0.067-0.427-0.176l0 0c-0.109-0.107-0.177-0.257-0.177-0.422s0.068-0.315 0.177-0.422l0-0 0.963-0.959 0.852 0.848-0.96 0.955zM9.161 25.415l-0.001 0.001-1.765 1.76-0.852-0.848 1.765-1.757c0.036-0.039 0.066-0.084 0.089-0.133l0.001-0.003c0.007-0.014 0.020-0.026 0.026-0.040 0.016-0.041 0.019-0.085 0.026-0.128 0.003-0.025 0.014-0.048 0.014-0.073 0-0.035-0.013-0.070-0.020-0.105-0.006-0.032-0.006-0.064-0.019-0.096-0.025-0.053-0.056-0.098-0.092-0.138l0 0c-0.010-0.012-0.014-0.026-0.025-0.038h-0.001l-0.001-0.002-1.607-1.6c-0.017-0.017-0.039-0.024-0.058-0.038-0.025-0.020-0.052-0.039-0.081-0.055l-0.003-0.001-0.003-0.001c-0.025-0.012-0.055-0.022-0.086-0.030l-0.004-0.001-0.003-0.001c-0.029-0.009-0.064-0.016-0.099-0.020l-0.002-0h-0.025c-0.027 0-0.053 0.002-0.078 0.005l0.003-0h0.003c-0.036 0.005-0.069 0.009-0.104 0.021s-0.064 0.027-0.094 0.045c-0.020 0.011-0.043 0.015-0.061 0.029l-1.774 1.324-0.901-0.897 2.399-2.386 4.361 4.29-0.928 0.919zM15.981 18.397c-0.016-0.002-0.030 0.004-0.046 0.003l-0.027-0.001c-0.033 0-0.064 0.003-0.095 0.009l0.003-0h0.003c-0.070 0.011-0.134 0.036-0.189 0.071l0.002-0.001 0.002-0.001c-0.031 0.018-0.059 0.039-0.083 0.061l0-0c-0.013 0.011-0.028 0.016-0.040 0.029l-4.699 5.147-4.329-4.257 2.833-2.818c0.095-0.097 0.154-0.229 0.154-0.376 0-0.295-0.238-0.534-0.532-0.535h-0.002l-2.219 0.013 0.028-1.607 3.104 0.027c1.261 1.297 3.021 2.101 4.97 2.101 0.003 0 0.006 0 0.009 0h0.003c0.438 0 0.864-0.046 1.28-0.122 0.040 0.032 0.080 0.064 0.129 0.085l2.41 0.96 0.152 0.758 0.178 0.886-3.003-0.427zM20.023 18.575l-0.313-1.558 1.446-1.080 0.946 1.257-2.080 1.381zM23.777 15.743l-0.837 0.785-0.931-1.236 0.831-0.637c0.122-0.093 0.277-0.15 0.445-0.15 0.035 0 0.069 0.002 0.102 0.007l-0.004-0c0.352 0.049 0.62 0.348 0.621 0.71v0c0 0 0 0.001 0 0.002 0 0.205-0.087 0.39-0.226 0.519l-0 0z"></path>
<path fill="#212121" style="fill: var(--color2, #212121)" d="M13.604 18.547l-2.143-2.134c-0.096-0.097-0.229-0.157-0.376-0.157s-0.28 0.060-0.376 0.156l-0 0-2.143 2.133c-0.097 0.097-0.156 0.23-0.156 0.378s0.060 0.281 0.156 0.378v0l2.142 2.134c0.096 0.097 0.229 0.157 0.376 0.157s0.28-0.060 0.376-0.156l0-0 2.143-2.134c0.097-0.096 0.158-0.23 0.158-0.378s-0.060-0.282-0.158-0.378l-0-0zM11.085 20.306l-1.387-1.381 1.386-1.381 1.387 1.381-1.387 1.381zM17.167 5.072l-0.258 1.036c0.071 0.018 1.738 0.452 1.738 2.149h1.067c0-2.017-1.666-2.965-2.547-3.184zM19.714 9.323h-1.067v1.066h1.067v-1.066z"></path>
</symbol>
<symbol id="Clientfive" viewBox="0 0 59 32">
<path  d="M20.442 21.129c0.085 0.096 0.13 0.216 0.128 0.34l0.001 0.026c0 0 0 0.001 0 0.002 0 0.077-0.018 0.149-0.049 0.213l0.001-0.003 0.001-0.003c-0.037 0.077-0.088 0.141-0.15 0.192l-0.001 0.001-0.001 0.001c-0.144 0.1-0.322 0.159-0.513 0.159-0.022 0-0.045-0.001-0.067-0.002l0.003 0h-1.007v-2.153h0.989l0.058-0.002c0.182 0 0.351 0.054 0.493 0.147l-0.003-0.002c0.064 0.049 0.115 0.111 0.148 0.181s0.048 0.146 0.044 0.223c0 0.006 0 0.013 0 0.020 0 0.118-0.044 0.227-0.116 0.309l0-0.001c-0.077 0.085-0.181 0.145-0.298 0.167l-0.003 0.001c0.136 0.022 0.254 0.089 0.341 0.184l0 0zM19.257 20.805h0.423c0.009 0.001 0.019 0.001 0.029 0.001 0.089 0 0.172-0.027 0.241-0.074l-0.002 0.001c0.030-0.025 0.054-0.057 0.070-0.092l0.001-0.002 0.001-0.002c0.012-0.028 0.020-0.060 0.020-0.094v-0l-0.001-0.021v0.001l0.001-0.018c0-0 0-0.001 0-0.001 0-0.035-0.007-0.068-0.021-0.099l0.001 0.002 0.001 0.002c-0.017-0.038-0.041-0.070-0.070-0.096l-0-0c-0.068-0.047-0.152-0.074-0.243-0.074-0.012 0-0.025 0.001-0.037 0.002l0.002-0h-0.414v0.565zM19.99 21.63c0.032-0.026 0.058-0.058 0.076-0.095l0.001-0.002 0.001-0.002c0.014-0.030 0.023-0.066 0.023-0.103v-0l-0.001-0.018v0.001-0.016c-0-0.039-0.009-0.076-0.025-0.11l0.001 0.002 0.001 0.002c-0.019-0.040-0.046-0.073-0.078-0.099l-0.001-0h-0.001c-0.073-0.049-0.162-0.079-0.259-0.079 0 0 0 0-0 0v0l-0.030 0.001h-0.443v0.592h0.449c0.008 0 0.017 0.001 0.026 0.001 0.096 0 0.185-0.028 0.26-0.077l-0.002 0.001zM22.465 22.055l-0.55-0.842h-0.207v0.842h-0.473v-2.154h0.896l0.064-0.002c0.211 0 0.405 0.070 0.562 0.187l-0.002-0.002c0.13 0.119 0.212 0.289 0.215 0.479v0.001c0 0 0 0.001 0 0.001 0 0.157-0.056 0.301-0.15 0.413l0.001-0.001 0.001-0.001c-0.11 0.113-0.256 0.192-0.419 0.218l-0.004 0.001h-0.004l0.586 0.861h-0.515zM21.708 20.92h0.387c0.269 0 0.404-0.109 0.404-0.326v-0.017c0-0 0-0.001 0-0.002 0-0.041-0.008-0.080-0.024-0.115l0.001 0.002 0.001 0.002c-0.018-0.044-0.044-0.081-0.077-0.111l-0-0c-0.073-0.055-0.166-0.089-0.267-0.089h-0l-0.039 0.002h-0.39l0.005 0.655zM25.053 21.622h-0.943l-0.167 0.434h-0.496l0.866-2.13h0.537l0.863 2.13h-0.496l-0.163-0.433zM24.926 21.296l-0.345-0.909-0.345 0.909h0.689zM28.293 22.055h-0.47l-1.054-1.464v1.464h-0.469v-2.154h0.469l1.054 1.473v-1.473h0.47v2.154zM30.975 21.54c-0.102 0.166-0.247 0.296-0.419 0.378l-0.006 0.003c-0.181 0.086-0.394 0.136-0.618 0.136-0.002 0-0.004 0-0.006 0h0l-0.040-0.001h-0.834v-2.154h0.876c0.225 0 0.439 0.049 0.631 0.137l-0.010-0.004c0.18 0.083 0.328 0.214 0.425 0.376 0.092 0.163 0.146 0.358 0.146 0.565s-0.054 0.402-0.149 0.571l0.003-0.006zM30.437 21.488c0.128-0.133 0.207-0.314 0.208-0.514v-0c-0.001-0.2-0.080-0.381-0.208-0.514l0 0c-0.145-0.115-0.331-0.185-0.534-0.185-0.020 0-0.040 0.001-0.060 0.002l0.003-0h-0.323v1.394h0.326c0.017 0.001 0.036 0.002 0.055 0.002 0.203 0 0.389-0.070 0.536-0.187l-0.002 0.001-0.002 0.001zM25.347 7.92s6.067 2.097 5.938 5.132v5.133s-6.063-2.098-5.936-5.133l-0.002-5.132zM36.69 16.984c1.099-0.698 2.411-1.164 3.819-1.297l0.035-0.003v-1.607c-1.594 0.563-2.946 1.583-3.855 2.907z"></path>
<path  d="M36.002 17.468c0.937-1.729 2.563-3.063 4.543-3.729v-4.63s-8.64 2.988-8.457 7.309v7.308s0.385-0.134 0.991-0.384c0-0.233 0-0.469 0.028-0.706 0.178-2.006 1.22-3.866 2.895-5.169z"></path>
<path  d="M35.181 20.183c0.050-0.552 0.157-1.061 0.316-1.545l-0.014 0.049c-1.044 1.125-1.675 2.522-1.806 3.994-0.012 0.122-0.020 0.268-0.023 0.416l-0 0.006c0.758-0.327 1.349-0.618 1.926-0.933l-0.125 0.062-0.139 0.068c-0.103-0.448-0.162-0.963-0.162-1.491 0-0.22 0.010-0.438 0.030-0.652l-0.002 0.027zM35.524 20.209c-0.017 0.178-0.027 0.386-0.027 0.595 0 0.483 0.051 0.954 0.148 1.408l-0.008-0.044-0.008-0.043c2.36-1.293 5.013-3.292 4.911-5.707v-0.21c-1.686 0.173-3.265 0.848-4.492 1.921-0.271 0.6-0.457 1.297-0.522 2.028l-0.002 0.025-0.002 0.026z"></path>
</symbol>
<symbol id="Clientfour" viewBox="0 0 59 32">
<path  d="M19.533 12.908h-0.001c-0.834 0-1.51 0.601-1.51 1.342v0.001c0 0.741 0.676 1.342 1.51 1.342h0.001c0.834 0 1.51-0.601 1.51-1.342v-0.001c0-0.742-0.676-1.343-1.51-1.343zM30.684 12.479c-0.002-1.030-0.464-2.017-1.283-2.745s-1.93-1.138-3.088-1.141c-1.159 0.002-2.27 0.412-3.090 1.14s-1.281 1.715-1.284 2.745v5.679s8.744-0.865 8.745-5.678v-0.001zM14.96 20.021c0.002 0.717 0.323 1.403 0.893 1.91s1.342 0.792 2.148 0.794c0.806-0.002 1.578-0.288 2.148-0.794s0.891-1.193 0.893-1.909v-3.952s-6.084 0.603-6.084 3.951zM18.002 20.729c-0.001 0-0.003 0-0.004 0-0.161 0-0.312-0.044-0.442-0.121l0.004 0.002c-0.126-0.074-0.225-0.181-0.289-0.309l-0.002-0.004-0.002-0.004c-0.038-0.079-0.061-0.171-0.061-0.269 0-0.051 0.006-0.101 0.018-0.148l-0.001 0.004-0.001 0.004c0.031-0.137 0.106-0.264 0.218-0.362 0.147-0.129 0.341-0.208 0.553-0.208 0.004 0 0.007 0 0.011 0h-0.001c0.109 0 0.214 0.020 0.311 0.056l-0.006-0.002c0.145 0.054 0.27 0.144 0.357 0.261s0.134 0.253 0.134 0.393c0 0.093-0.020 0.186-0.060 0.272-0.043 0.090-0.101 0.167-0.171 0.229l-0.001 0.001-0.001 0.001c-0.073 0.065-0.159 0.117-0.253 0.152l-0.006 0.002c-0.090 0.034-0.194 0.054-0.303 0.054-0.001 0-0.002 0-0.003 0h-0.001v-0.003zM24.151 20.339h-0.587v0.606h-0.306v-1.484h0.966v0.248h-0.661v0.383h0.587v0.247zM25.62 20.238c0 0.146-0.026 0.274-0.077 0.384s-0.126 0.195-0.223 0.255c-0.091 0.056-0.201 0.090-0.319 0.090-0 0-0 0-0 0h-0.011c-0.003 0-0.006 0-0.010 0-0.118 0-0.228-0.033-0.322-0.091l0.003 0.002c-0.096-0.061-0.172-0.145-0.221-0.245l-0.002-0.004-0.002-0.004c-0.051-0.106-0.080-0.23-0.080-0.361 0-0.002 0-0.003 0-0.005v0-0.086c0-0.146 0.026-0.275 0.078-0.385 0.095-0.206 0.299-0.346 0.536-0.346 0.006 0 0.012 0 0.018 0l-0.001-0c0.124 0 0.233 0.030 0.329 0.090s0.171 0.144 0.223 0.256 0.079 0.239 0.079 0.384v0.066zM25.311 20.17c0-0.155-0.028-0.274-0.083-0.355-0.050-0.073-0.133-0.121-0.227-0.121-0 0-0 0-0 0h-0.024c-0 0-0 0-0 0-0.093 0-0.175 0.047-0.224 0.119l-0.001 0.001-0.001 0.001c-0.056 0.080-0.084 0.196-0.085 0.351v0.072c0 0.151 0.028 0.269 0.083 0.352s0.136 0.125 0.241 0.125h0.012c0 0 0 0 0 0 0.093 0 0.175-0.047 0.223-0.118l0.001-0.001 0.001-0.001c0.055-0.081 0.083-0.198 0.083-0.353v-0.072zM26.612 20.556v-0.009c0-0 0-0 0-0 0-0.050-0.024-0.094-0.061-0.122l-0-0c-0.063-0.041-0.136-0.075-0.214-0.097l-0.006-0.001c-0.1-0.031-0.187-0.067-0.268-0.11l0.008 0.004 0.009 0.004c-0.169-0.091-0.253-0.214-0.253-0.368 0-0.080 0.023-0.152 0.067-0.214 0.046-0.063 0.111-0.112 0.195-0.148s0.18-0.053 0.285-0.053c0.106 0 0.2 0.019 0.284 0.058 0.155 0.070 0.261 0.222 0.262 0.4v0h-0.306c0-0.068-0.021-0.121-0.064-0.158-0.045-0.036-0.102-0.058-0.164-0.058-0.006 0-0.011 0-0.017 0.001l0.001-0c-0.005-0-0.011-0.001-0.017-0.001-0.059 0-0.113 0.018-0.158 0.049l0.001-0.001c-0.038 0.027-0.062 0.071-0.062 0.12 0 0 0 0.001 0 0.001v-0 0.004c0 0.048 0.024 0.089 0.072 0.121s0.121 0.063 0.215 0.091c0.174 0.052 0.301 0.117 0.38 0.195s0.119 0.174 0.119 0.289c0 0.128-0.049 0.23-0.146 0.303s-0.227 0.109-0.392 0.109c-0.003 0-0.006 0-0.010 0-0.109 0-0.213-0.023-0.307-0.065l0.005 0.002c-0.088-0.037-0.16-0.095-0.213-0.169l-0.001-0.001-0.001-0.002c-0.046-0.068-0.073-0.152-0.073-0.242 0-0 0-0.001 0-0.001v0-0.010h0.306c0 0.163 0.098 0.246 0.294 0.246 0.005 0 0.010 0 0.016 0 0.057 0 0.11-0.017 0.155-0.045l-0.001 0.001c0.037-0.027 0.061-0.070 0.061-0.118v-0.006zM28.245 19.709h-0.454v1.236h-0.306v-1.236h-0.448v-0.248h1.208v0.248zM29.312 20.303h-0.587v0.398h0.689v0.246h-0.994v-1.484h0.993v0.248h-0.687v0.354h0.587v0.239zM30.143 20.402h-0.244v0.543h-0.306v-1.484h0.551c0.175 0 0.311 0.039 0.406 0.117s0.143 0.189 0.143 0.331c0 0.005 0 0.010 0 0.016 0 0.088-0.025 0.17-0.067 0.24l0.001-0.002c-0.049 0.070-0.115 0.125-0.193 0.159l-0.003 0.001-0.003 0.001 0.321 0.606v0.014h-0.328l-0.278-0.543zM29.9 20.155h0.247c0.077 0 0.136-0.019 0.178-0.058 0.039-0.038 0.063-0.091 0.063-0.15 0-0 0-0.001 0-0.001v0-0.011c0-0.070-0.020-0.125-0.060-0.165s-0.1-0.060-0.183-0.060h-0.246v0.445zM31.752 20.423v0.523h-0.306v-1.484h0.579c0.111 0 0.209 0.021 0.294 0.061s0.15 0.099 0.196 0.174c0.045 0.075 0.068 0.16 0.068 0.256 0 0.145-0.050 0.26-0.15 0.344s-0.237 0.126-0.413 0.126h-0.268zM31.752 20.175h0.273c0.081 0 0.143-0.019 0.184-0.057 0.043-0.038 0.064-0.093 0.064-0.163v-0.011c0-0 0-0.001 0-0.001 0-0.064-0.024-0.122-0.064-0.165l0 0c-0.043-0.043-0.102-0.069-0.168-0.069-0.003 0-0.007 0-0.010 0h-0.28v0.466zM33.687 20.303h-0.587v0.398h0.689v0.246h-0.995v-1.484h0.993v0.248h-0.687v0.354h0.587v0.239zM35.106 19.709h-0.455v1.236h-0.306v-1.236h-0.448v-0.248h1.209v0.248zM36.174 20.303h-0.587v0.398h0.689v0.246h-0.995v-1.484h0.992v0.248h-0.687v0.354h0.587v0.239zM37.005 20.402h-0.243v0.543h-0.306v-1.484h0.551c0.175 0 0.31 0.039 0.406 0.117s0.143 0.189 0.143 0.331c0 0.005 0 0.010 0 0.016 0 0.088-0.025 0.17-0.067 0.24l0.001-0.002c-0.049 0.070-0.115 0.125-0.193 0.159l-0.003 0.001-0.003 0.001 0.321 0.606v0.014h-0.328l-0.278-0.543zM36.761 20.155h0.247c0.077 0 0.136-0.019 0.178-0.058 0.039-0.039 0.063-0.092 0.063-0.151 0-0.004-0-0.007-0-0.011l0 0c0-0.070-0.020-0.125-0.060-0.165s-0.1-0.060-0.182-0.060h-0.246v0.445zM38.558 20.556v-0.009c-0-0.050-0.024-0.095-0.061-0.124l-0-0c-0.063-0.041-0.136-0.075-0.214-0.097l-0.006-0.001c-0.1-0.031-0.187-0.067-0.268-0.11l0.008 0.004 0.009 0.004c-0.169-0.091-0.253-0.214-0.253-0.368 0-0.080 0.022-0.152 0.067-0.214s0.111-0.112 0.195-0.148 0.18-0.053 0.285-0.053c0.106 0 0.2 0.019 0.283 0.058s0.147 0.092 0.192 0.162c0.046 0.070 0.070 0.15 0.070 0.238h-0.306c0-0.003 0-0.007 0-0.011 0-0.058-0.025-0.11-0.064-0.147l-0-0c-0.045-0.036-0.102-0.058-0.164-0.058-0.006 0-0.011 0-0.017 0.001l0.001-0c-0.005-0-0.011-0.001-0.017-0.001-0.059 0-0.113 0.018-0.158 0.049l0.001-0.001c-0.038 0.027-0.062 0.071-0.062 0.12 0 0 0 0 0 0v0 0.004c0 0.048 0.024 0.089 0.072 0.121s0.121 0.063 0.215 0.091c0.174 0.052 0.301 0.117 0.38 0.195s0.119 0.174 0.119 0.289c0 0.128-0.049 0.23-0.146 0.303s-0.228 0.109-0.392 0.109c-0.003 0-0.006 0-0.010 0-0.109 0-0.213-0.023-0.307-0.065l0.005 0.002c-0.087-0.037-0.16-0.096-0.213-0.169l-0.001-0.001-0.001-0.002c-0.046-0.069-0.074-0.153-0.074-0.244v0-0.010h0.307c0 0.163 0.098 0.246 0.294 0.246 0.005 0 0.010 0 0.016 0 0.057 0 0.11-0.017 0.155-0.045l-0.001 0.001c0.037-0.027 0.061-0.070 0.061-0.119v0-0.006z"></path>
</symbol>
<symbol id="Clientone" viewBox="0 0 59 32">
<path  d="M24.354 8.001l2.438 2.308-4.526-0.003v11.199h11.829v-4.282l2.435 2.305v-11.528h-12.177zM33.988 16.953l-6.913-6.544h6.913v6.544zM31.841 19.867h-7.703v-7.531h0.544v7.021h7.159v0.51zM25.957 22.997l-0.285 0.586-0.285-0.586h-0.239l0.415 0.781v0.455h0.216v-0.455l0.415-0.781h-0.238zM26.315 24.233l0.1-0.288h0.479l0.101 0.288h0.224l-0.468-1.237h-0.193l-0.467 1.237h0.223zM26.654 23.259l0.179 0.513h-0.358l0.179-0.513zM27.788 23.742c-0.029 0.044-0.047 0.097-0.047 0.155v0 0.002c0 0.104 0.037 0.189 0.11 0.254s0.172 0.097 0.294 0.097c0.004 0 0.008 0 0.013 0 0.114 0 0.219-0.037 0.305-0.1l-0.001 0.001 0.070 0.082h0.239l-0.182-0.215c0.067-0.098 0.108-0.218 0.108-0.348 0-0.009-0-0.018-0.001-0.027l0 0.001h-0.18c0 0.002 0 0.005 0 0.007 0 0.080-0.019 0.155-0.052 0.222l0.001-0.003-0.239-0.282 0.084-0.061c0.050-0.035 0.093-0.077 0.126-0.125l0.001-0.002 0.001-0.002c0.024-0.040 0.039-0.089 0.039-0.141v-0.007c0-0 0-0 0-0 0-0.076-0.033-0.144-0.086-0.19l-0-0c-0.055-0.050-0.128-0.080-0.207-0.080-0.001 0-0.001 0-0.002 0h-0.012c-0.099 0-0.179 0.029-0.238 0.085s-0.088 0.133-0.088 0.23c0 0.040 0.009 0.081 0.028 0.123 0.029 0.059 0.063 0.109 0.102 0.155l-0.001-0.001c-0.072 0.047-0.132 0.103-0.183 0.168l-0.001 0.002zM28.346 24.016c-0.053 0.043-0.121 0.069-0.195 0.070h-0.010c-0.002 0-0.005 0-0.008 0-0.102 0-0.185-0.083-0.185-0.185 0-0 0-0.001 0-0.001v0-0.007c0-0.066 0.034-0.125 0.102-0.177l0.026-0.019 0.27 0.319zM28.125 23.468c-0.058-0.072-0.088-0.131-0.088-0.179 0-0.041 0.012-0.075 0.036-0.103 0.022-0.025 0.055-0.041 0.091-0.041v0h0.009c0.034 0 0.065 0.013 0.088 0.035 0.023 0.020 0.037 0.049 0.037 0.082v0.004c0 0.046-0.020 0.087-0.052 0.115l-0.026 0.022-0.094 0.064zM30.137 24.14c0.085-0.077 0.14-0.186 0.146-0.308l0-0.001h-0.214c-0.011 0.088-0.038 0.151-0.081 0.189s-0.106 0.057-0.19 0.057c-0.003 0-0.007 0-0.011 0-0.083 0-0.155-0.041-0.199-0.104l-0.001-0.001c-0.045-0.078-0.072-0.172-0.072-0.272 0-0.012 0-0.024 0.001-0.035l-0 0.002v-0.109c0.001-0.132 0.027-0.232 0.077-0.3s0.122-0.103 0.216-0.103c0.080 0 0.141 0.020 0.183 0.059s0.068 0.103 0.078 0.192h0.214c-0.014-0.135-0.062-0.24-0.145-0.314s-0.193-0.111-0.329-0.111c-0.005-0-0.011-0-0.017-0-0.189 0-0.351 0.111-0.426 0.271l-0.001 0.003-0.001 0.003c-0.039 0.086-0.062 0.187-0.062 0.293 0 0 0 0.001 0 0.001v-0 0.13c0.002 0.114 0.023 0.214 0.064 0.3s0.099 0.152 0.173 0.199c0.071 0.044 0.157 0.070 0.25 0.070 0.004 0 0.008-0 0.012-0h-0.001c0.007 0 0.016 0.001 0.024 0.001 0.12 0 0.229-0.042 0.316-0.111l-0.001 0.001zM31.4 23.966c0.040-0.089 0.063-0.193 0.063-0.303 0-0.006-0-0.011-0-0.017v0.001-0.082c-0-0.112-0.024-0.218-0.068-0.313l0.002 0.005 0.002 0.005c-0.039-0.087-0.101-0.157-0.177-0.207l-0.002-0.001-0.002-0.001c-0.078-0.049-0.167-0.073-0.268-0.073s-0.19 0.024-0.268 0.074c-0.080 0.051-0.142 0.124-0.18 0.209l-0.001 0.003c-0.040 0.089-0.064 0.194-0.064 0.303 0 0 0 0 0 0.001v-0 0.085c0.001 0.118 0.022 0.223 0.064 0.313s0.104 0.161 0.182 0.21c0.074 0.046 0.163 0.073 0.259 0.073 0.003 0 0.006-0 0.009-0h-0c0.102 0 0.191-0.024 0.269-0.073s0.138-0.12 0.18-0.211zM31.17 23.267c0.050 0.080 0.079 0.177 0.079 0.281 0 0.012-0 0.024-0.001 0.036l0-0.002v0.064c0 0.139-0.026 0.245-0.077 0.318s-0.124 0.109-0.219 0.109h-0.009c0 0 0 0-0 0-0.087 0-0.164-0.044-0.21-0.11l-0.001-0.001-0.001-0.001c-0.050-0.080-0.080-0.177-0.080-0.282 0-0.012 0-0.023 0.001-0.035l-0 0.002v-0.071c-0-0.008-0.001-0.018-0.001-0.027 0-0.104 0.030-0.201 0.082-0.283l-0.001 0.002c0.047-0.067 0.123-0.11 0.209-0.11h0.010c0.095 0 0.168 0.037 0.22 0.11z"></path>
</symbol>
<symbol id="Clientsix" viewBox="0 0 59 32">
<path  d="M29.72 15.101c-0.133-0.17-0.214-0.388-0.214-0.624 0-0.025 0.001-0.050 0.003-0.075l-0 0.003v0.003-1.003c0-0.307 0.070-0.541 0.209-0.701s0.379-0.239 0.718-0.239c0.319 0 0.546 0.068 0.68 0.204 0.126 0.145 0.203 0.336 0.203 0.545 0 0.019-0.001 0.039-0.002 0.058l0-0.003v0.236h-0.57v-0.239c0-0.010 0-0.022 0-0.034 0-0.071-0.006-0.14-0.019-0.207l0.001 0.007c-0.010-0.056-0.039-0.104-0.081-0.138l-0-0c-0.051-0.034-0.113-0.055-0.181-0.055-0.001 0-0.002 0-0.003 0h0l-0.025 0.001h0.001l-0.024-0.001c-0 0-0 0-0 0-0.072 0-0.139 0.022-0.195 0.060l0.001-0.001 0.001-0.001c-0.047 0.038-0.080 0.090-0.094 0.149l-0 0.002v0.002c-0.015 0.069-0.023 0.148-0.023 0.229v1.236c-0.001 0.014-0.002 0.030-0.002 0.046 0 0.108 0.028 0.21 0.076 0.299l-0.002-0.003c0.030 0.037 0.068 0.065 0.112 0.082l0.002 0.001c0.033 0.014 0.071 0.021 0.111 0.021 0.013 0 0.026-0.001 0.039-0.003l-0.002 0h-0.001l0.024 0.001c0 0 0.001 0 0.001 0 0.067 0 0.128-0.021 0.178-0.058l-0.001 0.001-0.001 0.001c0.044-0.036 0.074-0.087 0.085-0.145l0-0.002v-0.001c0.012-0.066 0.018-0.142 0.018-0.219 0-0.009-0-0.017-0-0.026l0 0.001v-0.247h0.571v0.225l0.002 0.060c0 0.001 0 0.001 0 0.002 0 0.217-0.076 0.416-0.202 0.573l0.001-0.002 0.001-0.002c-0.131 0.149-0.355 0.223-0.683 0.223s-0.577-0.080-0.717-0.245zM32.097 15.112c-0.144-0.157-0.216-0.384-0.216-0.685v-1.055c0-0.298 0.072-0.524 0.216-0.677s0.385-0.229 0.723-0.229c0.336 0 0.575 0.077 0.72 0.229 0.144 0.153 0.217 0.378 0.217 0.677v1.055c0 0.298-0.073 0.527-0.22 0.684s-0.385 0.236-0.717 0.236-0.578-0.080-0.724-0.234zM33.086 14.858c0.044-0.081 0.070-0.177 0.070-0.279 0-0.012-0-0.023-0.001-0.035l0 0.002v-1.292l0.001-0.035c0-0.001 0-0.001 0-0.002 0-0.1-0.026-0.194-0.071-0.275l0.001 0.003 0.002 0.003c-0.030-0.037-0.069-0.065-0.113-0.082l-0.002-0.001-0.002-0.001c-0.032-0.013-0.070-0.020-0.109-0.020-0.015 0-0.030 0.001-0.044 0.003l0.002-0h0.002c-0.012-0.002-0.025-0.002-0.039-0.002-0.041 0-0.081 0.008-0.117 0.022l0.002-0.001 0.002-0.001c-0.047 0.018-0.086 0.046-0.117 0.083l-0 0v0.001c-0.044 0.079-0.070 0.173-0.070 0.274 0 0.011 0 0.023 0.001 0.034l-0-0.002v1.298c-0.001 0.011-0.001 0.024-0.001 0.037 0 0.101 0.026 0.195 0.072 0.278l-0.002-0.003c0.069 0.065 0.162 0.105 0.264 0.105 0.001 0 0.002 0 0.003 0h-0c0.053 0 0.103-0.010 0.149-0.029l-0.003 0.001c0.047-0.019 0.087-0.045 0.12-0.077l-0 0v-0.006zM34.445 12.498h0.614l0.462 1.946 0.473-1.946h0.598l0.061 2.809h-0.442l-0.047-1.953-0.456 1.953h-0.354l-0.473-1.959-0.044 1.959h-0.447l0.056-2.809zM37.341 12.498h0.957c0.551 0 0.827 0.266 0.827 0.798 0 0.509-0.29 0.764-0.871 0.763h-0.326v1.248h-0.591l0.003-2.81zM38.159 13.698c0.016 0.002 0.035 0.003 0.054 0.003 0.102 0 0.197-0.035 0.272-0.093l-0.001 0.001c0.055-0.074 0.088-0.167 0.088-0.267 0-0.018-0.001-0.035-0.003-0.052l0 0.002 0.001-0.031c0-0.082-0.011-0.161-0.032-0.236l0.001 0.006 0.001 0.006c-0.009-0.030-0.024-0.056-0.044-0.077l0 0c-0.020-0.023-0.045-0.041-0.072-0.055l-0.001-0.001-0.001-0.001c-0.068-0.029-0.148-0.046-0.231-0.046-0.001 0-0.001 0-0.002 0h0l-0.032 0.001h-0.227v0.84h0.229zM39.977 12.498h0.635l0.651 2.809h-0.551l-0.129-0.648h-0.566l-0.133 0.648h-0.559l0.651-2.809zM40.521 14.334l-0.221-1.179-0.221 1.179h0.442zM41.79 12.498h0.414l0.792 1.603v-1.603h0.49v2.809h-0.393l-0.797-1.673v1.673h-0.507l0.001-2.809zM44.634 14.236l-0.658-1.734h0.554l0.402 1.114 0.377-1.114h0.543l-0.65 1.734v1.071h-0.567v-1.071zM30.633 16.537v0.147h-0.482v1.142h-0.202v-1.142h-0.485v-0.147h1.169zM32.144 17.825h-0.16c-0.015-0-0.029-0.005-0.040-0.012l0 0c-0.011-0.007-0.020-0.017-0.026-0.029l-0-0-0.14-0.306h-0.669l-0.139 0.306c-0.004 0.014-0.012 0.026-0.022 0.035l-0 0c-0.011 0.008-0.024 0.012-0.039 0.012-0 0-0.001 0-0.001-0h-0.16l0.591-1.288h0.206l0.598 1.284zM31.165 17.347h0.558l-0.237-0.525c-0.015-0.032-0.029-0.070-0.041-0.109l-0.002-0.006-0.002-0.007-0.022 0.069-0.022 0.054-0.234 0.523zM33.162 17.699c0.015 0.001 0.033 0.002 0.051 0.002 0.086 0 0.168-0.015 0.244-0.041l-0.005 0.002c0.026-0.009 0.052-0.021 0.079-0.032v-0.29h-0.238c-0 0-0 0-0 0-0.011 0-0.022-0.004-0.030-0.011l0 0c-0.004-0.003-0.007-0.006-0.009-0.010l-0-0c-0.002-0.003-0.003-0.007-0.003-0.011 0-0 0-0.001 0-0.001v0-0.1h0.458v0.494c-0.070 0.044-0.151 0.080-0.237 0.102l-0.006 0.001-0.006 0.001c-0.041 0.011-0.092 0.021-0.143 0.027l-0.005 0c-0.049 0.005-0.106 0.008-0.163 0.008-0.004 0-0.007 0-0.011-0h-0.007c-0.106-0-0.209-0.018-0.303-0.052l0.006 0.002 0.006 0.002c-0.092-0.032-0.171-0.078-0.239-0.136l0.001 0.001 0.001 0.001c-0.062-0.055-0.113-0.122-0.149-0.196l-0.002-0.004-0.002-0.004c-0.034-0.076-0.054-0.164-0.054-0.257 0-0.001 0-0.002 0-0.002v0-0.017c0-0.094 0.020-0.184 0.055-0.266l-0.002 0.004c0.037-0.081 0.088-0.149 0.151-0.203l0.001-0.001c0.067-0.057 0.146-0.103 0.232-0.133l0.005-0.002c0.097-0.030 0.209-0.048 0.324-0.048 0.055 0 0.11 0.004 0.163 0.012l-0.006-0.001c0.097 0.015 0.184 0.045 0.264 0.086l-0.005-0.002c0.039 0.022 0.073 0.044 0.105 0.068l-0.002-0.001-0.057 0.080c-0.005 0.007-0.011 0.013-0.019 0.017l-0 0c-0.008 0.004-0.017 0.007-0.027 0.007h-0c-0.014-0-0.026-0.004-0.037-0.010l0 0c-0.024-0.011-0.044-0.022-0.063-0.033l0.002 0.001 0.003 0.002c-0.021-0.012-0.045-0.023-0.071-0.033l-0.004-0.001-0.004-0.001c-0.029-0.011-0.064-0.020-0.1-0.027l-0.004-0.001-0.005-0.001c-0.042-0.007-0.091-0.011-0.14-0.011-0.001 0-0.001 0-0.002 0h-0.015c-0 0-0.001 0-0.001 0-0.081 0-0.158 0.014-0.23 0.038l0.005-0.002 0.005-0.001c-0.067 0.023-0.125 0.058-0.174 0.102l0-0c-0.046 0.043-0.083 0.095-0.107 0.154l-0.001 0.003-0.001 0.003c-0.026 0.064-0.040 0.138-0.040 0.216s0.015 0.154 0.043 0.222l-0.001-0.004-0.001-0.004c0.058 0.123 0.16 0.218 0.287 0.263l0.004 0.001c0.056 0.017 0.12 0.027 0.186 0.027 0.017 0 0.034-0.001 0.050-0.002l-0.002 0zM35.047 17.678h0.645v0.147h-0.843v-1.288h0.202l-0.005 1.142zM36.364 17.825h-0.202v-1.288h0.202v1.288zM37.115 16.543c0.012 0.006 0.022 0.014 0.031 0.023l0 0 0.864 0.971-0.001-0.023 0.001-0.024v0.001-0.96h0.176v1.294h-0.109c-0.014-0-0.027-0.003-0.039-0.008l0.001 0h0.001c-0.012-0.007-0.023-0.015-0.032-0.024l-0-0-0.863-0.971v1.002h-0.169v-1.288h0.105c0.011 0 0.023 0.002 0.033 0.006zM39.673 16.537v0.142h-0.716v0.425h0.58v0.137h-0.58v0.44h0.716v0.142h-0.924v-1.285h0.924zM18.495 8.577l8.974 2.2v7.709l-8.974-2.198v-7.71zM17.92 7.92v8.741l10.124 2.482v-8.74l-10.124-2.483z"></path>
<path  d="M23.346 23.203l-10.126-2.484v-8.74l10.126 2.483v8.741zM18.088 8.478l8.857 2.172-3.767 3.253-8.858-2.173 3.768-3.252zM17.92 7.92l-4.699 4.057 10.126 2.484 4.698-4.058-10.124-2.483zM23.916 22.71l4.129-3.565-4.129-1.013v4.579z"></path>
</symbol>
<symbol id="Clientthree" viewBox="0 0 59 32">
<path  d="M23.799 22.648c0.006 0 0.011 0.001 0.016 0.003l0.014 0.008 0.076 0.072c-0.059 0.059-0.131 0.106-0.21 0.137l-0.004 0.001c-0.084 0.032-0.181 0.050-0.283 0.050-0 0-0 0-0.001 0h-0.020c-0.005 0-0.010 0-0.016 0-0.096 0-0.188-0.017-0.274-0.048l0.006 0.002c-0.159-0.056-0.285-0.173-0.351-0.323l-0.001-0.004-0.001-0.004c-0.031-0.073-0.049-0.159-0.049-0.248 0-0.001 0-0.002 0-0.003v0-0.021c0-0.177 0.077-0.336 0.199-0.446h0.001c0.064-0.056 0.14-0.1 0.222-0.13l0.005-0.002c0.085-0.029 0.183-0.046 0.285-0.046 0.003 0 0.005 0 0.008 0h0.018c0.091 0 0.178 0.015 0.259 0.044l-0.006-0.002c0.078 0.030 0.146 0.070 0.205 0.118l-0.001-0.001-0.064 0.077c-0.005 0.005-0.010 0.010-0.016 0.014l-0 0c-0.006 0.004-0.013 0.006-0.021 0.006-0 0-0.001 0-0.001 0h-0.003c-0.010-0-0.020-0.003-0.028-0.008l0 0-0.034-0.021-0.048-0.026c-0.043-0.021-0.092-0.037-0.144-0.046l-0.003-0h-0.003c-0.032-0.005-0.068-0.008-0.105-0.008-0 0-0 0-0 0h-0.016c-0.075 0-0.146 0.013-0.212 0.037l0.004-0.001 0.004-0.001c-0.124 0.043-0.222 0.134-0.272 0.25l-0.001 0.003c-0.025 0.058-0.039 0.125-0.039 0.196 0 0.001 0 0.002 0 0.003v-0 0.015c0 0.072 0.014 0.141 0.040 0.204l-0.001-0.004c0.025 0.060 0.061 0.111 0.105 0.154l0 0c0.044 0.042 0.096 0.075 0.155 0.095l0.003 0.001c0.056 0.021 0.121 0.033 0.189 0.033 0.002 0 0.004 0 0.006-0h-0c0.001 0 0.003 0 0.004 0 0.039 0 0.078-0.003 0.116-0.008l-0.005 0c0.097-0.010 0.183-0.049 0.252-0.108l-0.001 0.001-0.001 0.001c0.010-0.008 0.022-0.013 0.036-0.013v0zM25.99 22.284v0.008c0 0 0 0 0 0 0 0.092-0.020 0.178-0.055 0.257l0.002-0.004 0.002-0.004c-0.034 0.078-0.082 0.144-0.141 0.198l-0.001 0h-0.001c-0.062 0.055-0.135 0.099-0.215 0.128l-0.005 0.001-0.005 0.001c-0.086 0.030-0.185 0.047-0.289 0.047-0.105 0-0.207-0.018-0.301-0.051l0.006 0.002 0.006 0.002c-0.086-0.030-0.16-0.075-0.224-0.132l0.001 0.001 0.001 0.001c-0.060-0.054-0.108-0.12-0.142-0.193l-0.001-0.004-0.001-0.004c-0.033-0.076-0.052-0.164-0.052-0.257 0-0.094 0.020-0.184 0.055-0.266l-0.002 0.004-0.002 0.004c0.035-0.079 0.083-0.147 0.144-0.202l0-0c0.063-0.054 0.137-0.097 0.218-0.125l0.005-0.001c0.086-0.030 0.185-0.047 0.289-0.047 0.105 0 0.207 0.018 0.301 0.051l-0.006-0.002-0.006-0.002c0.084 0.030 0.16 0.074 0.224 0.131s0.111 0.125 0.143 0.199c0.035 0.083 0.053 0.17 0.051 0.258zM25.791 22.284v-0.011c0-0.001 0-0.001 0-0.002 0-0.071-0.014-0.139-0.039-0.201l0.001 0.004 0.001 0.004c-0.046-0.118-0.139-0.208-0.256-0.249l-0.003-0.001-0.003-0.001c-0.063-0.021-0.135-0.034-0.211-0.034-0.076 0-0.15 0.013-0.218 0.036l0.005-0.001 0.005-0.001c-0.12 0.042-0.215 0.132-0.262 0.246l-0.001 0.003-0.001 0.003c-0.023 0.061-0.037 0.132-0.037 0.205 0 0.076 0.014 0.148 0.040 0.215l-0.001-0.004-0.001-0.004c0.046 0.119 0.141 0.21 0.26 0.25l0.003 0.001c0.063 0.021 0.135 0.033 0.21 0.033s0.147-0.012 0.214-0.034l-0.005 0.001c0.062-0.021 0.116-0.054 0.16-0.096l-0 0c0.044-0.042 0.078-0.094 0.101-0.151l0.001-0.003c0.023-0.058 0.036-0.124 0.036-0.194 0-0.004-0-0.008-0-0.012v0.001zM27.485 22.5l0.020 0.046 0.022-0.046c0.008-0.018 0.017-0.034 0.027-0.048l-0.001 0.001-0.001 0.002 0.485-0.766c0.010-0.013 0.018-0.022 0.028-0.024s0.021-0.004 0.033-0.004h0.15v1.245h-0.17v-0.954l-0.001-0.022 0.001-0.023v0.001l-0.488 0.776c-0.007 0.012-0.016 0.021-0.028 0.028l-0 0c-0.011 0.006-0.025 0.010-0.039 0.010-0.001 0-0.002 0-0.002-0h-0.029c-0 0-0 0-0 0-0.015 0-0.029-0.004-0.041-0.011l0 0c-0.012-0.007-0.021-0.016-0.028-0.028l-0-0-0.502-0.781v0.999h-0.164v-1.243h0.15c0.012 0 0.023 0.002 0.034 0.005h-0.001c0.011 0.005 0.020 0.013 0.026 0.024l0 0 0.495 0.766c0.009 0.012 0.017 0.027 0.023 0.041l0.001 0.002 0.001 0.002zM29.309 22.438v0.466h-0.189v-1.243h0.423c0.004-0 0.008-0 0.013-0 0.079 0 0.156 0.010 0.23 0.028l-0.006-0.001c0.064 0.016 0.12 0.043 0.168 0.079l-0.001-0.001c0.040 0.032 0.073 0.073 0.094 0.12l0.001 0.002c0.020 0.044 0.032 0.096 0.032 0.15 0 0.003-0 0.006-0 0.009v-0 0.008c-0 0.112-0.053 0.211-0.136 0.274l-0.001 0.001-0.001 0.001c-0.048 0.036-0.104 0.064-0.165 0.081l-0.003 0.001c-0.064 0.018-0.137 0.029-0.213 0.029-0 0-0 0-0 0h-0.016l-0.229-0.003zM29.309 22.304h0.23c0.002 0 0.005 0 0.008 0 0.050 0 0.098-0.007 0.143-0.020l-0.004 0.001c0.041-0.012 0.077-0.030 0.108-0.055l-0.001 0.001-0.001 0.001c0.053-0.044 0.087-0.11 0.087-0.184v-0.016c0-0 0-0.001 0-0.001 0-0.032-0.007-0.062-0.021-0.089l0.001 0.001 0.001 0.001c-0.016-0.034-0.038-0.062-0.066-0.085l-0-0c-0.063-0.043-0.14-0.068-0.223-0.068-0.001 0-0.002 0-0.002 0h0l-0.031 0.001h-0.229v0.512zM31.859 22.907h-0.153c-0 0-0 0-0.001 0-0.014 0-0.028-0.005-0.038-0.012l0 0c-0.011-0.007-0.019-0.017-0.025-0.028l-0-0-0.129-0.301h-0.648l-0.134 0.301c-0.012 0.024-0.036 0.040-0.064 0.040-0 0-0 0-0 0v0h-0.152l0.569-1.245h0.197l0.577 1.245zM30.92 22.444h0.535l-0.225-0.507c-0.015-0.031-0.029-0.070-0.041-0.11l-0.002-0.007-0.022 0.065c-0.008 0.022-0.015 0.040-0.023 0.057l0.002-0.004-0.224 0.506zM32.678 21.667c0.011 0.005 0.021 0.013 0.028 0.022l0 0 0.83 0.939v-0.967h0.17v1.245h-0.097c-0.013 0-0.026-0.003-0.038-0.008l0.001 0h0.001c-0.012-0.006-0.022-0.014-0.031-0.023l-0-0-0.829-0.938 0.001 0.021-0.001 0.022v-0.001 0.925h-0.17v-1.245h0.101c0.011 0 0.023 0.002 0.034 0.006zM35.105 22.411v0.494h-0.19v-0.494l-0.525-0.75h0.174c0.014 0 0.026 0.004 0.037 0.011 0.010 0.008 0.019 0.018 0.026 0.028l0.328 0.484c0.013 0.021 0.025 0.040 0.034 0.058s0.017 0.035 0.024 0.053l0.024-0.054c0.011-0.023 0.022-0.041 0.033-0.059l-0.001 0.002 0.324-0.487c0.007-0.010 0.015-0.019 0.024-0.026l0-0c0.010-0.008 0.022-0.012 0.036-0.012 0 0 0.001 0 0.001 0h0.175l-0.525 0.753zM27.391 19.571c0.083 0.009 0.166 0.016 0.25 0.023 1.28-0.497 2.362-1.311 3.114-2.34s1.134-2.227 1.105-3.446l-1.41-1.225c0.287 1.296 0.152 2.637-0.387 3.872s-1.464 2.313-2.67 3.117z"></path>
<path  d="M26.887 19.514l0.038 0.007c1.288-0.801 2.271-1.919 2.82-3.211s0.64-2.695 0.261-4.033l-2.009-1.745c0.812 1.435 1.139 3.040 0.943 4.631s-0.908 3.099-2.052 4.351zM33.702 15.247c-0.341 1.338-1.17 2.545-2.363 3.442-0.314 0.24-0.668 0.466-1.041 0.661l-0.083 0.039c0.972-0.248 1.865-0.687 2.611-1.282s1.324-1.332 1.691-2.152l-0.815-0.707z"></path>
<path  d="M33.381 15.050l-1.16-1.008c-0.022 1.149-0.398 2.272-1.089 3.253s-1.671 1.782-2.838 2.321h0.006c0.26 0 0.52-0.014 0.779-0.040 1.091-0.387 2.055-1.003 2.806-1.792s1.265-1.728 1.497-2.732zM27.055 9.796l-1.384-1.204c-1.237 0.415-2.301 1.145-3.053 2.095s-1.156 2.074-1.159 3.227c0.005 1.273 0.498 2.509 1.402 3.512s2.166 1.714 3.589 2.022c1.269-1.343 2.012-3.003 2.121-4.74s-0.422-3.457-1.515-4.913zM36.579 14.864c-0.005-1.51-0.698-2.958-1.927-4.027s-2.895-1.67-4.635-1.674h-0.015c-0.835 0-1.638 0.139-2.386 0.395l0.052-0.015 8.473 7.362c0.277-0.596 0.438-1.294 0.438-2.030 0-0.004 0-0.008 0-0.011v0.001z"></path>
</symbol>
<symbol id="Clienttwo" viewBox="0 0 59 32">
<path  d="M28.568 7.63h-0.048c-0.052-0.003-0.126-0.006-0.201-0.008l-0.013-0h-0.163c-0.138 0-0.279 0.003-0.419 0.010l-0.016-0.001-0.017 0.001h0.001c-1.366 0.078-2.633 0.423-3.775 0.985l0.058-0.026 0.059-0.026-0.151 0.072v7.703l0.352-0.12c0.309-0.106 0.638-0.202 0.979-0.29 0.841-0.225 1.81-0.361 2.808-0.374h0.008v1.012c-0.133 0.001-0.262 0.005-0.391 0.011l0.021-0.001h-0.029c-0.818 0.045-1.586 0.17-2.324 0.368l0.079-0.018 0.078-0.017c-0.98 0.249-1.839 0.594-2.638 1.035l0.057-0.029v-9.88c0.78-0.463 1.681-0.841 2.636-1.086l0.072-0.016c0.765-0.209 1.644-0.329 2.55-0.329h0.151c0.178 0.005 0.351 0.013 0.514 0.025 0.429 0.030 0.854 0.098 1.271 0.202v0.996c-0.348-0.087-0.761-0.152-1.182-0.183l-0.024-0.001-0.026-0.002-0.025-0.002c-0.072-0.008-0.159-0.013-0.246-0.015l-0.003-0h-0.003zM30.321 8.649c0.221 0.017 0.449 0.025 0.681 0.025 0.982-0.003 1.932-0.135 2.836-0.379l-0.077 0.018-0.076 0.017c1.001-0.254 1.879-0.609 2.693-1.064l-0.056 0.029-0.057 0.029v9.704c-0.78 0.463-1.681 0.841-2.636 1.086l-0.072 0.016c-0.765 0.205-1.644 0.325-2.55 0.328h-0.065c-0.002 0-0.005 0-0.008 0-0.682 0-1.344-0.088-1.974-0.252l0.108 0.024v-9.767c0.36 0.088 0.788 0.154 1.226 0.186l0.027 0.002zM35.26 8.724l-0.352 0.119c-0.324 0.109-0.65 0.206-0.978 0.293-0.877 0.235-1.883 0.371-2.922 0.375h-0.002c-0.23 0-0.441-0.006-0.645-0.019l-0.281-0.018v7.924l0.241 0.021c0.223 0.020 0.454 0.030 0.686 0.030 0.843-0.003 1.659-0.117 2.434-0.328l-0.131 0.030c0.711-0.179 1.329-0.409 1.914-0.697l-0.056 0.025-0.057 0.025 0.151-0.072v-7.705zM23.566 21.295c-0.094-0.098-0.226-0.159-0.373-0.159-0 0-0 0-0 0h-0.026c0 0 0 0 0 0-0.080 0-0.156 0.016-0.226 0.045l0.004-0.001 0.004-0.001c-0.132 0.053-0.235 0.157-0.287 0.286l-0.001 0.003-0.001 0.003c-0.025 0.062-0.040 0.134-0.040 0.209 0 0.003 0 0.006 0 0.009v-0 1.32c-0 0.006-0 0.012-0 0.019 0 0.091 0.019 0.178 0.054 0.256l-0.002-0.004c0.032 0.070 0.077 0.129 0.131 0.177l0.001 0.001c0.050 0.043 0.111 0.075 0.178 0.093l0.003 0.001c0.059 0.017 0.127 0.027 0.197 0.027 0 0 0 0 0 0v0c0.303-0.006 0.546-0.253 0.547-0.556v-0.148h-0.345v0.126c0 0 0 0.001 0 0.002 0 0.040-0.008 0.078-0.022 0.113l0.001-0.002 0.001-0.002c-0.012 0.029-0.029 0.054-0.050 0.074l-0 0c-0.039 0.031-0.089 0.050-0.144 0.050h-0l-0.020 0.001c-0 0-0 0-0.001 0-0.058 0-0.109-0.028-0.14-0.072l-0-0c-0.029-0.046-0.046-0.102-0.046-0.163 0-0 0-0 0-0.001v0-1.244c-0-0.003-0-0.007-0-0.011 0-0.068 0.016-0.132 0.043-0.189l-0.001 0.003c0.032-0.049 0.086-0.081 0.148-0.081 0.007 0 0.015 0 0.022 0.001l-0.001-0h0.006c0.060 0 0.114 0.029 0.147 0.074 0.036 0.046 0.057 0.105 0.057 0.169 0 0 0 0.001 0 0.001v-0 0.122h0.342v-0.141c0-0.001 0-0.002 0-0.003 0-0.081-0.016-0.159-0.045-0.23l0.001 0.004 0.001 0.004c-0.027-0.072-0.066-0.134-0.116-0.186l0 0zM25.616 21.281c-0.105-0.090-0.242-0.144-0.392-0.144-0.074 0-0.145 0.013-0.21 0.038l0.004-0.001c-0.141 0.051-0.253 0.154-0.314 0.286l-0.001 0.003-0.001 0.003c-0.032 0.071-0.050 0.154-0.050 0.241 0 0.005 0 0.010 0 0.015v-0.001 1.265c-0 0.004-0 0.009-0 0.014 0 0.088 0.018 0.173 0.052 0.249l-0.002-0.004c0.033 0.070 0.078 0.129 0.133 0.176l0.001 0.001c0.051 0.047 0.111 0.085 0.178 0.11l0.004 0.001c0.061 0.023 0.132 0.037 0.206 0.037 0.151 0 0.289-0.056 0.394-0.149l-0.001 0.001-0.001 0.001c0.111-0.1 0.181-0.244 0.181-0.404 0-0.011-0-0.022-0.001-0.033l0 0.002v-1.278c0-0.001 0-0.002 0-0.003 0-0.088-0.019-0.172-0.054-0.247l0.002 0.004 0.002 0.004c-0.032-0.072-0.076-0.134-0.13-0.185l-0-0zM25.455 22.988c0 0.005 0.001 0.012 0.001 0.018 0 0.064-0.026 0.123-0.069 0.165l-0 0c-0.044 0.037-0.1 0.059-0.163 0.059s-0.119-0.022-0.163-0.060l0 0c-0.043-0.041-0.069-0.098-0.069-0.162 0-0 0-0.001 0-0.001v0l0.001-0.021v0.001-1.266l-0.001-0.020c0-0.064 0.027-0.122 0.069-0.163 0.044-0.037 0.1-0.059 0.163-0.059s0.119 0.022 0.163 0.060l-0-0c0.043 0.041 0.069 0.098 0.069 0.162 0 0 0 0.001 0 0.001v-0l-0.001 0.021v-0.001 1.266zM28.309 23.553v-2.397h-0.331l-0.436 1.269h-0.006l-0.439-1.268h-0.328v2.396h0.342v-1.457h0.006l0.335 1.030h0.171l0.338-1.030h0.006v1.457h0.342zM30.253 21.324c-0.052-0.058-0.116-0.102-0.19-0.13l-0.003-0.001c-0.069-0.023-0.148-0.037-0.23-0.037-0.002 0-0.004 0-0.005 0h-0.522v2.397h0.341v-0.936h0.176c0.008 0 0.018 0.001 0.028 0.001 0.102 0 0.198-0.024 0.283-0.067l-0.004 0.002c0.078-0.044 0.14-0.105 0.185-0.179l0.001-0.002 0.001-0.002c0.037-0.060 0.065-0.13 0.078-0.206l0-0.003c0.012-0.075 0.019-0.162 0.019-0.251v-0.022c0-0.011 0-0.024 0-0.037 0-0.108-0.012-0.213-0.035-0.314l0.002 0.009c-0.024-0.086-0.068-0.16-0.126-0.22l0 0zM30.077 22.054c-0.002 0.047-0.014 0.090-0.033 0.129l0.001-0.002 0.001-0.002c-0.020 0.036-0.049 0.065-0.086 0.083l-0.001 0h-0.001c-0.042 0.019-0.091 0.031-0.143 0.031h-0.174v-0.815h0.192c0 0 0 0 0 0 0.051 0 0.099 0.011 0.142 0.032l-0.002-0.001-0.002-0.001c0.035 0.020 0.062 0.050 0.079 0.086l0 0.001v0.001c0.018 0.039 0.029 0.085 0.030 0.134v0.159c0 0.056 0.003 0.113 0 0.165h-0.003zM31.871 21.155h-0.28l-0.528 2.397h0.342l0.1-0.515h0.465l0.101 0.515h0.341l-0.541-2.397zM31.556 22.712l0.168-0.869h0.006l0.167 0.869h-0.341zM34.078 22.599h-0.006l-0.516-1.444h-0.328v2.397h0.341v-1.441h0.007l0.522 1.441h0.321v-2.396h-0.341v1.444zM36.164 21.155l-0.275 0.953h-0.007l-0.274-0.953h-0.362l0.469 1.384v1.013h0.342v-1.013l0.469-1.383h-0.361zM22.614 24.229h0.165v0.462h0.112v-0.462h0.163v-0.095h-0.44v0.095zM23.998 24.135l-0.216 0.557h0.119l0.046-0.127h0.222l0.047 0.127h0.122l-0.221-0.557h-0.119zM23.98 24.471l0.075-0.206 0.075 0.206h-0.151zM25.365 24.486h0.129v0.072c-0.036 0.029-0.082 0.047-0.132 0.047h-0.008c-0 0-0 0-0 0-0.044 0-0.084-0.021-0.11-0.053l-0-0c-0.026-0.037-0.041-0.082-0.041-0.131 0-0.001 0-0.001 0-0.002v0-0.012c0-0.124 0.054-0.186 0.16-0.186l0.012-0.001c0.055 0 0.101 0.038 0.114 0.088v0.001l0.11-0.021c-0.024-0.109-0.102-0.163-0.236-0.163h-0.008c-0 0-0 0-0 0-0.072 0-0.138 0.027-0.187 0.072l0-0c-0.050 0.049-0.081 0.117-0.081 0.193 0 0.008 0 0.016 0.001 0.023l-0-0.001v-0.001 0.013c0 0 0 0.001 0 0.001 0 0.075 0.027 0.143 0.072 0.195l-0-0c0.049 0.051 0.117 0.082 0.193 0.082 0 0 0.001 0 0.001 0h-0l0.018-0.001h0.008c0.088-0 0.168-0.034 0.227-0.089l-0 0v-0.219h-0.241v0.094zM26.762 24.135h-0.113v0.557h0.39v-0.095h-0.277v-0.462zM27.943 24.135h-0.112v0.557h0.112v-0.557zM29.098 24.506l-0.228-0.372h-0.109v0.557h0.104v-0.363l0.224 0.363h0.112v-0.557h-0.103v0.372zM30.142 24.446h0.277v-0.095h-0.277v-0.122h0.298v-0.095h-0.411v0.557h0.422v-0.095h-0.31v-0.151zM32.672 24.354h-0.219v-0.219h-0.111v0.556h0.111v-0.244h0.219v0.244h0.112v-0.557h-0.112v0.22zM33.722 24.446h0.278v-0.095h-0.278v-0.122h0.299v-0.095h-0.41v0.557h0.422v-0.095h-0.31v-0.151zM35.147 24.446c0.097-0.015 0.146-0.066 0.146-0.155l0.001-0.016c-0-0.044-0.022-0.083-0.055-0.107l-0-0c-0.041-0.021-0.089-0.033-0.14-0.033-0 0-0.001 0-0.001 0h0l-0.023 0.001h-0.235v0.556h0.112v-0.233h0.031c0.022 0 0.044 0.005 0.063 0.013l-0.001-0h-0.001c0.017 0.010 0.030 0.024 0.040 0.040l0 0.001 0.121 0.177h0.134l-0.068-0.109c-0.031-0.054-0.072-0.098-0.121-0.132l-0.001-0.001-0.001-0.001zM35.034 24.369h-0.082v-0.14h0.088l0.024-0.001c0.032 0 0.063 0.005 0.092 0.015l-0.002-0.001c0.015 0.014 0.024 0.033 0.024 0.055 0 0 0 0 0 0v-0c-0 0.012-0.003 0.024-0.008 0.034l0-0c-0.005 0.010-0.012 0.018-0.021 0.024l-0 0c-0.027 0.009-0.059 0.014-0.092 0.014-0 0-0.001 0-0.001 0h0l-0.022-0.001h0.001zM36.221 24.446h0.277v-0.095h-0.277v-0.122h0.299v-0.095h-0.412v0.557h0.422v-0.095h-0.31v-0.151z"></path>
</symbol>
<symbol id="clock" viewBox="0 0 32 32">
<path fill="#212121" style="fill: var(--color2, #212121)" d="M31.301 15.303c-0.001-8.453-6.856-15.305-15.31-15.303s-15.305 6.856-15.303 15.31c0.002 6.789 4.423 12.545 10.543 14.547l0.108 0.031c0.057 0.018 0.122 0.028 0.19 0.028 0.125 0 0.242-0.034 0.342-0.094l-0.003 0.002c0.134-0.080 0.234-0.205 0.282-0.353l0.001-0.005 3.866-12.252c1.053-0.005 1.905-0.86 1.905-1.913 0-1.057-0.857-1.913-1.913-1.913-0.307 0-0.597 0.072-0.855 0.201l0.022-0.010-5.107-5.108c-0.114-0.109-0.269-0.176-0.44-0.176-0.352 0-0.638 0.286-0.638 0.638 0 0.171 0.067 0.326 0.176 0.44l-0-0 5.104 5.11c-0.12 0.239-0.191 0.52-0.191 0.818 0 0.003 0 0.006 0 0.008v-0c0 0.602 0.283 1.137 0.723 1.48l0.004 0.003-3.683 11.675c-7.279-2.681-11.006-10.756-8.325-18.035s10.756-11.006 18.035-8.324c7.279 2.681 11.006 10.756 8.324 18.035-1.345 3.582-4.004 6.407-7.375 7.939l-0.088 0.036-0.398-1.874c-0.064-0.291-0.319-0.505-0.625-0.505-0.164 0-0.313 0.061-0.426 0.163l0.001-0.001 0.001-0.001-3.838 3.427c-0.132 0.117-0.215 0.287-0.215 0.477 0 0.282 0.183 0.521 0.437 0.605l0.005 0.001 0.005 0.001 4.9 1.563c0.059 0.020 0.126 0.031 0.196 0.031 0.352 0 0.637-0.285 0.637-0.637 0-0.049-0.006-0.096-0.016-0.142l0.001 0.004 0.001 0.004-0.391-1.839c5.529-2.374 9.33-7.773 9.33-14.059v-0.032zM15.994 14.666c0.352 0 0.638 0.286 0.638 0.638s-0.286 0.638-0.638 0.638v0c-0.352 0-0.638-0.286-0.638-0.638s0.286-0.638 0.638-0.638v0zM18.095 29.532l2.184-1.948 0.603 2.84-2.787-0.892z"></path>
<path fill="#2196f3" style="fill: var(--color3, #2196f3)" d="M15.356 3.185v1.275c0 0.352 0.286 0.638 0.638 0.638s0.638-0.286 0.638-0.638v0-1.275c0-0.352-0.286-0.638-0.638-0.638s-0.638 0.286-0.638 0.638v0zM3.877 14.666c-0.352 0-0.638 0.286-0.638 0.638s0.286 0.638 0.638 0.638h1.275c0.352 0 0.638-0.286 0.638-0.638s-0.286-0.638-0.638-0.638h-1.275zM28.112 15.941c0.352 0 0.638-0.286 0.638-0.638s-0.286-0.638-0.638-0.638h-1.275c-0.352 0-0.638 0.286-0.638 0.638s0.286 0.638 0.638 0.638h1.275z"></path>
</symbol>
<symbol id="diagram" viewBox="0 0 32 32">
<path fill="#2196f3" style="fill: var(--color3, #2196f3)" d="M14.928 14.967h1.066v4.799h-1.066v-4.799zM19.193 17.1h1.066v2.665h-1.066v-2.665zM10.663 18.699h1.066v1.066h-1.066v-1.066zM7.464 18.166h1.066v1.599h-1.066v-1.599z"></path>
<path fill="#212121" style="fill: var(--color2, #212121)" d="M1.599 28.295h25.59c0.883-0.001 1.599-0.716 1.599-1.599v-2.132c-0.001-0.883-0.716-1.599-1.599-1.599h-0.533v-13.296l3.028-2.868c0.207 0.104 0.452 0.165 0.71 0.165 0.888 0 1.608-0.72 1.608-1.608s-0.72-1.608-1.608-1.608c-0.888 0-1.608 0.72-1.608 1.608 0 0.251 0.058 0.489 0.16 0.7l-0.004-0.010-0.004-0.010-2.281 2.162v-1.23c-0.001-0.883-0.716-1.599-1.599-1.599h-21.326c-0.883 0.001-1.599 0.716-1.599 1.599v15.994h-0.533c-0.883 0.001-1.599 0.716-1.599 1.599v2.132c0.001 0.883 0.716 1.599 1.599 1.599h0zM30.389 4.838c0.294 0 0.533 0.239 0.533 0.533s-0.239 0.533-0.533 0.533v0c-0.294 0-0.533-0.239-0.533-0.533s0.239-0.533 0.533-0.533v0zM3.198 6.97c0-0.294 0.239-0.533 0.533-0.533h21.326c0.294 0 0.533 0.239 0.533 0.533v2.239l-1.066 1.013v-2.185c0-0.295-0.239-0.534-0.534-0.534v0h-19.192c0 0 0 0 0 0-0.295 0-0.534 0.239-0.534 0.533v13.329c0 0.294 0.239 0.533 0.534 0.533h19.192c0 0 0 0 0 0 0.295 0 0.534-0.239 0.534-0.533v-9.677l1.066-1.010v12.285h-22.392v-15.993zM7.997 13.901h-0.005c-0.001 0-0.002 0-0.003 0-0.884 0-1.6 0.716-1.6 1.6s0.716 1.6 1.6 1.6c0.434 0 0.827-0.172 1.115-0.452l-0 0 1.853 0.93c0.069 0.035 0.151 0.056 0.238 0.056 0.158 0 0.3-0.068 0.398-0.177l0-0 3.94-4.433 3.873 2.902c0.088 0.066 0.199 0.106 0.32 0.106 0.142 0 0.271-0.055 0.367-0.146l-0 0 3.366-3.188v8.132h-18.126v-12.263h18.126v2.661l-3.772 3.573-3.905-2.927c-0.088-0.067-0.2-0.107-0.32-0.107-0.158 0-0.3 0.068-0.397 0.177l-0 0.001v0.001l-3.994 4.494-1.493-0.746c0.011-0.064 0.017-0.128 0.020-0.193-0.001-0.883-0.716-1.599-1.599-1.599h-0zM8.53 15.5c0 0.294-0.239 0.533-0.533 0.533s-0.533-0.239-0.533-0.533v0c0-0.294 0.239-0.533 0.533-0.533s0.533 0.239 0.533 0.533v0zM11.729 24.030h5.331v0.533c0 0.294-0.239 0.533-0.533 0.533v0h-4.266c-0.294 0-0.533-0.239-0.533-0.533v0-0.533zM1.067 24.564c0-0.294 0.238-0.533 0.533-0.533h9.063v0.533c0.001 0.883 0.716 1.599 1.599 1.599h4.266c0.883-0.001 1.599-0.716 1.599-1.599v-0.533h9.063c0.294 0 0.533 0.239 0.533 0.533v2.132c0 0.294-0.239 0.533-0.533 0.533v0h-25.59c-0.294 0-0.533-0.239-0.533-0.533v0-2.132z"></path>
</symbol>
<symbol id="envelope" viewBox="0 0 43 32">
<path  d="M38.678 0.004h-34.678c-2.209 0.003-3.999 1.793-4.002 4.001v24.008c0.003 2.209 1.793 3.999 4.001 4.002h34.678c2.209-0.003 3.999-1.793 4.002-4.001v-24.008c-0.003-2.209-1.793-3.999-4.001-4.002h-0zM38.678 2.671c0.181 0 0.355 0.037 0.512 0.104l-17.851 15.472-17.851-15.472c0.151-0.065 0.327-0.104 0.512-0.104h34.678zM38.678 29.347h-34.678c-0.737 0-1.334-0.597-1.334-1.334v0-22.421l17.798 15.427c0.233 0.203 0.539 0.327 0.875 0.327s0.642-0.124 0.876-0.328l-0.002 0.001 17.798-15.427v22.421c0 0.736-0.597 1.334-1.334 1.334z"></path>
</symbol>
<symbol id="smartphone" viewBox="0 0 20 32">
<path  d="M17.002 0h-14.004c-1.654 0-3 1.346-3 3v26.008c0 1.654 1.346 3 3 3h14.004c1.654 0 3-1.346 3-3v-26.008c0-1.654-1.346-3-3-3zM2.998 2h14.004c0.552 0 1 0.448 1 1v0 21.006h-16.004v-21.006c0-0.552 0.448-1 1-1v0zM17.002 30.009h-14.004c-0.552 0-1-0.448-1-1v0-3h16.004v3c0 0.552-0.448 1-1 1v0z"></path>
<path  d="M4.706 27.486c0.181 0.163 0.293 0.399 0.293 0.66s-0.112 0.496-0.292 0.659l-0.001 0.001-0.001 0.001c-0.186 0.171-0.435 0.276-0.709 0.276s-0.523-0.105-0.709-0.276l0.001 0.001 0.001 0.001c-0.18-0.163-0.293-0.399-0.293-0.66s0.112-0.496 0.292-0.659l0.001-0.001 0.001-0.001c0.186-0.171 0.435-0.276 0.709-0.276s0.523 0.105 0.709 0.276l-0.001-0.001-0.001-0.001z"></path>
</symbol>
</defs>
</svg>
